<svg width="93" height="110" viewBox="0 0 93 110" fill="none" xmlns="http://www.w3.org/2000/svg">
<path d="M60.4751 104.851C60.4751 104.851 62.3985 83.5797 75.7419 77.9461C73.5028 73.3542 70.5206 57.2738 79.1543 64.4271C77.0635 57.9198 72.7598 47.6593 78.5927 51.4186C80.0679 45.8513 78.7288 33.5718 74.3079 32.438C73.2051 32.973 65.2492 61.7876 64.468 71.9436C63.6868 82.0996 59.2499 102.874 60.4751 104.851Z" fill="#028D45"/>
<path d="M60.4747 104.852C60.4747 104.852 58.8751 81.5742 55.4635 77.2134C59.6882 74.956 67.9586 60.941 56.4401 69.3866C57.5822 63.0064 69.136 48.1406 57.6818 54.7221C61.8381 44.2829 71.1478 32.6591 74.3074 32.4383C70.1355 41.6395 63.5914 72.5485 60.4747 104.852Z" fill="#66AA3A"/>
<path d="M60.1058 105.192C60.1058 105.192 45.3753 88.5042 32.0379 92.6325C30.8356 87.2456 22.9516 71.6649 21.0758 83.5059C18.5499 76.5483 15.3301 65.0019 13.3629 72.0709C8.76833 68.3405 2.1296 57.081 4.62887 53.198C5.79391 52.879 29.644 71.9885 36.5871 80.0361C43.5302 88.0837 59.7678 102.742 60.1058 105.192Z" fill="#028D45"/>
<path d="M60.1059 105.192C60.1059 105.192 46.7604 84.4935 46.5658 78.4909C42.0077 79.4044 27.128 73.0405 40.9029 72.5488C36.0555 67.9102 18.2547 63.0306 30.8337 60.9132C21.2365 54.9028 7.11512 51.2634 4.62896 53.198C13.4765 58.1649 37.5953 79.9516 60.1059 105.192Z" fill="#66AA3A"/>
<path d="M60.3092 104.467C60.3092 104.467 68.4662 94.887 74.2545 97.5879C75.2712 94.4489 80.1629 85.4085 80.0441 92.411C81.7797 88.3709 84.2147 81.6166 84.5248 85.8392C86.9524 83.7326 90.9071 77.2049 90.0469 74.8429C89.5426 74.6197 77.0323 85.4499 73.182 90.0658C69.3318 94.6817 60.6734 103.02 60.3092 104.467Z" fill="#028D45"/>
<path d="M60.3089 104.467C60.3089 104.467 68.1754 92.4772 68.7206 88.9794C70.7558 89.561 78.1028 86.1123 71.7864 85.5357C74.3926 82.9273 83.0079 80.39 77.3667 78.916C82.2919 75.5376 89.0666 73.6858 90.0465 74.8428C85.5994 77.6057 72.736 90.0145 60.3089 104.467Z" fill="#66AA3A"/>
<path d="M60.7042 104.965C60.7042 104.965 51.9619 84.9418 48.5443 53.6736L45.1266 22.4054L43.3623 22.4206C43.3623 22.4206 45.0164 45.2953 47.7614 61.7054C50.5064 78.1156 55.4689 104.12 60.7042 104.965Z" fill="#66AA3A"/>
<path d="M46.731 7.84379C45.4324 10.2541 43.809 3.5305 43.9139 6.8852C44.0187 10.2399 41.7497 0.0299696 41.8849 4.79833C42.0201 9.56669 41.4556 7.04717 41.0119 9.65127C40.5683 12.2554 36.9081 7.56143 36.9081 7.56143C36.9081 7.56143 32.0005 5.362 33.5334 8.37562C35.0663 11.3892 32.5195 10.4965 32.5195 10.4965C32.5195 10.4965 28.6717 8.82772 32.0242 12.4853C35.3768 16.1429 28.6749 13.0761 32.1324 15.3529C35.5898 17.6297 24.9971 13.9599 29.1047 16.0937C33.2122 18.2275 24.6673 17.3954 28.1862 18.8262C31.7051 20.257 21.5032 21.2456 26.1757 21.6945C30.8481 22.1434 21.3422 25.6405 27.0146 24.8548C32.687 24.0692 21.5274 28.8999 28.4152 26.8174C35.303 24.7348 26.3411 32.6119 29.649 30.4757C32.957 28.3394 25.6562 34.9707 29.5003 31.8601C33.3445 28.7495 28.0899 36.0943 32.4043 31.7493C36.7188 27.4042 34.7922 39.6921 36.6807 34.8425C38.5691 29.9929 33.773 44.3803 36.7417 38.2009C39.7104 32.0215 36.7757 49.1294 39.4114 42.137C42.047 35.1447 42.5976 48.0214 43.5509 38.3378C44.5041 28.6541 49.7464 43.2616 47.8747 36.7359C46.003 30.2101 52.2387 39.8218 50.1929 34.9039C48.1471 29.986 56.2356 40.6371 53.441 35.7378C50.6464 30.8385 59.639 39.1124 55.5474 34.0121C51.4559 28.9118 64.0107 33.3464 58.7046 30.6051C53.3984 27.8637 67.7586 28.5621 60.3747 26.8359C52.9908 25.1098 59.2388 22.24 59.2388 22.24C59.2388 22.24 71.4107 17.8997 62.0666 18.064C52.7225 18.2283 56.3983 14.6892 56.3983 14.6892C56.3983 14.6892 59.5399 10.0442 56.4544 11.675C53.3689 13.3058 56.6797 5.41596 53.4492 8.47513C50.2188 11.5343 52.92 4.2709 50.0918 7.91591C47.2635 11.5609 48.9489 3.76317 46.731 7.84379Z" fill="#FFDC40"/>
<path d="M35.3522 19.0215C36.5328 19.9403 32.7633 20.2565 34.5899 20.4574C36.4165 20.6582 30.6671 21.052 33.2573 21.41C35.8475 21.7681 34.4412 21.8418 35.8041 22.3028C37.167 22.7638 34.3445 24.3725 34.3445 24.3725C34.3445 24.3725 32.6989 26.8562 34.4629 26.3099C36.2268 25.7636 35.5374 27.0164 35.5374 27.0164C35.5374 27.0164 34.2896 28.9798 36.5459 27.4628C38.8023 25.9458 36.573 29.3636 38.1534 27.682C39.7338 26.0005 36.7463 31.4291 38.2533 29.3996C39.7605 27.3702 38.5987 31.9376 39.6822 30.1207C40.7657 28.3038 40.4048 33.9989 41.0312 31.468C41.6575 28.937 42.7832 34.4632 42.8721 31.3135C42.961 28.1638 44.566 34.6677 44.0114 30.6869C43.4567 26.7061 46.9789 32.3852 46.1043 30.3785C45.2297 28.3718 48.2176 32.9451 46.8715 30.5797C45.5254 28.2143 49.0423 31.7253 47.0895 28.9682C45.1367 26.2111 51.5858 28.3697 49.1226 26.8946C46.6593 25.4195 54.0523 29.3577 50.9565 27.1833C47.8608 25.0089 56.9042 28.1006 53.3337 26.0545C49.7632 24.0084 56.8104 24.8777 51.6185 23.4987C46.4267 22.1198 54.8564 20.5275 51.1417 20.9719C47.427 21.4163 53.215 18.8506 50.3589 19.5328C47.5028 20.215 54.0097 16.7482 51.0991 17.8332C48.1886 18.9183 53.4894 14.756 50.3273 16.526C47.1653 18.296 50.7292 11.8454 48.7477 14.5342C46.7663 17.2231 48.4479 9.38135 46.8765 13.275C45.3051 17.1686 44.2465 13.4956 44.2465 13.4956C44.2465 13.4956 42.9955 6.47526 42.2761 11.5809C41.5568 16.6864 39.9477 14.3431 39.9477 14.3431C39.9477 14.3431 37.6959 12.2306 38.2927 14.0836C38.8896 15.9366 34.9242 13.3925 36.2846 15.4027C37.645 17.4129 33.9394 15.3339 35.6832 17.1792C37.4271 19.0244 33.3237 17.4656 35.3522 19.0215Z" fill="#F3B714"/>
</svg>
