<svg width="104" height="135" viewBox="0 0 104 135" fill="none" xmlns="http://www.w3.org/2000/svg">
<path d="M56.5544 47.6854C56.5544 47.6854 45.9261 41.6574 46.8676 34.4657C47.8092 27.274 50.0871 13.4683 45.4043 4.30273C51.3813 7.80763 59.8282 19.8328 62.6414 27.5023C65.4545 35.1719 63.3496 42.465 56.5544 47.6854Z" fill="#8CD3AF"/>
<path d="M59.6775 60.7688C59.7357 60.4593 59.2179 49.8349 62.8534 46.8117C66.489 43.7886 76.1032 33.5606 77.3261 27.0626C78.8771 33.8996 77.1124 44.7353 73.2764 54.1742C69.4403 63.6131 59.6775 60.7688 59.6775 60.7688Z" fill="#80B28A"/>
<path d="M49.7483 74.3701C49.7483 74.3701 38.9829 74.9072 36.426 64.1735C33.8692 53.4399 35.0846 41.6313 37.7471 35.2669C37.2401 37.2311 39.5484 47.8264 43.6808 53.593C47.8133 59.3597 51.7965 65.1897 49.7483 74.3701Z" fill="#8CD3AF"/>
<path d="M51.2917 92.1907C51.2917 92.1907 54.0985 80.6815 60.4934 79.0474C66.8883 77.4132 74.1091 76.2548 78.9708 70.1213C83.8325 63.9877 92.0439 60.7273 94.9311 60.9503C92.7095 61.0814 88.9846 65.5524 85.8027 72.002C82.6207 78.4517 74.8189 89.0208 64.7764 91.067C54.7339 93.1132 51.2917 92.1907 51.2917 92.1907Z" fill="#8CD3AF"/>
<path d="M39.3951 97.2752C39.3951 97.2752 41.8702 86.0698 36.7502 81.9023C31.6302 77.7349 25.7422 73.5144 24.0341 66.0529C22.3261 58.5913 16.3344 52.246 13.6494 51.1914C15.558 52.2372 16.9883 57.7698 17.0941 64.7467C17.1999 71.7236 19.5925 84.3029 27.7257 90.4563C35.8588 96.6097 39.3951 97.2752 39.3951 97.2752Z" fill="#80B28A"/>
<path d="M39.4556 115.685C39.4556 115.685 42.6129 104.746 50.3558 103.731C58.0987 102.717 66.7199 102.143 72.4709 96.6342C78.2219 91.1257 86.8581 84.8787 90.3393 85.3508C87.7006 85.2661 84.4459 93.0752 80.7116 99.0547C76.9774 105.034 67.7615 114.605 55.6887 115.766C43.6159 116.926 39.4556 115.685 39.4556 115.685Z" fill="#80B28A"/>
<path d="M76.179 96.8747C74.5201 98.3933 72.8612 99.9119 71.0864 101.317C69.3411 102.76 67.448 104.015 65.4388 105.06C64.9373 105.309 64.4099 105.501 63.8662 105.634C63.3378 105.795 62.7957 105.907 62.2468 105.97L58.8754 106.617C56.66 107.071 54.5021 107.77 52.4415 108.701C51.3967 109.145 50.3879 109.642 49.3707 110.183L46.4434 111.875C42.8893 113.79 39.1731 115.388 35.3381 116.65C35.6339 116.294 35.8939 115.885 36.1898 115.529L37.2658 113.946L38.3417 112.364C41.0783 108.052 43.4609 103.526 45.4658 98.8295C46.1023 97.3931 46.6421 95.9843 47.2344 94.5396C50.5698 93.0434 53.7095 91.1442 56.583 88.8844C57.3266 88.3378 58.0427 87.6944 58.7505 87.0953L59.8701 86.2534L61.0339 85.4197C62.5827 84.3582 64.226 83.4417 65.9431 82.682C67.6456 81.904 69.3758 81.2227 71.0867 80.4004C72.8043 79.5984 74.4214 78.5969 75.9048 77.4168C78.9403 75.1503 81.4041 72.2729 83.7078 69.2737C81.3682 72.2203 78.8602 75.0895 75.8247 77.3559C74.3351 78.4939 72.725 79.4648 71.0233 80.2512C69.3207 81.0292 67.5463 81.7022 65.8437 82.4802C64.1052 83.2468 62.4335 84.1569 60.8462 85.2013L59.6907 85.9907L58.5627 86.8769C57.8108 87.4677 57.103 88.0668 56.3594 88.6134C53.6187 90.7518 50.6223 92.5403 47.4392 93.9374C50.4383 86.0596 52.6909 77.9175 54.1673 69.6184L54.8744 65.8611C56.9935 63.795 59.0064 61.6227 60.9052 59.3525C62.8464 57.0576 64.6712 54.6667 66.3727 52.1888L67.0503 51.2636L67.6836 50.3301C68.0736 49.7169 68.5079 49.1121 68.9062 48.4548C69.3045 47.7974 70.4829 45.9138 71.1911 44.5824C72.6882 41.9818 74.0476 39.3044 75.2639 36.5612C73.98 39.2488 72.6435 41.9723 71.1111 44.5216C70.3586 45.8446 69.526 47.1068 68.7377 48.3773C68.3477 48.9904 67.9135 49.5952 67.5151 50.2526L66.8901 51.1419L66.2125 52.0671C64.4673 54.5306 62.6061 56.8807 60.6732 59.1258C58.7403 61.3709 56.9264 63.2265 54.9717 65.1013L55.188 63.952L55.449 62.0788L56.0235 58.2965L56.4571 54.5334C57.0654 49.4815 57.3347 44.3945 57.2632 39.3065C57.2309 38.0189 57.1903 36.7755 57.1138 35.4795C57.0373 34.1836 56.9 32.9677 56.771 31.7077L56.4849 29.8231C56.372 29.2068 56.3117 28.5547 56.1546 27.9301C55.9975 27.3055 55.6672 25.4126 55.3006 24.1993L54.821 22.3698L54.2006 20.5596C53.991 19.9709 53.7814 19.3822 53.5276 18.7852C53.2738 18.1882 53.1084 17.6079 52.8546 17.0109C51.8283 14.6818 50.6997 12.4098 49.4689 10.1948C50.65 12.4309 51.7785 14.7029 52.7578 17.0384C53.0116 17.6354 53.2212 18.2241 53.4308 18.8128C53.6404 19.4015 53.8942 19.9985 54.0955 20.6314L54.6718 22.4333L55.1513 24.2628C55.4738 25.4677 55.6912 26.7444 55.9611 27.9852L56.2555 29.8257L56.4974 31.702C56.6181 33.0062 56.7471 34.2663 56.8319 35.518L56.9454 39.2925C56.9354 44.3726 56.6071 49.4471 55.9625 54.4861C55.7738 55.7322 55.6292 56.9865 55.4847 58.2408L54.8743 61.9706L53.46 69.4853C53.0108 71.8723 52.4731 74.2427 51.8913 76.6047C50.0618 74.6159 48.4136 72.4676 46.9663 70.1855C45.39 67.7507 43.9874 65.2079 42.7688 62.5758L41.908 60.583L41.4998 59.5908L41.0998 58.5544L40.3358 56.534L39.6768 54.4419L39.3211 53.4138L39.0621 52.3581L38.4915 50.2827C38.1665 48.8484 37.8856 47.4224 37.5522 46.0324C37.8773 47.4666 38.1139 48.8843 38.4473 50.2743L39.0096 52.394C39.0756 52.7726 39.1942 53.1153 39.2686 53.4497L39.616 54.522L40.2391 56.5616L40.9948 58.6261L41.3505 59.6543L41.7947 60.699L42.6112 62.6835C43.8154 65.3496 45.1945 67.9332 46.7395 70.4174C48.2043 72.8134 49.8961 75.063 51.7915 77.1352C50.0188 84.436 47.59 91.5617 44.5349 98.4255C44.0617 99.4806 43.536 100.572 43.0628 101.627C41.7574 100.363 40.5776 98.9765 39.5399 97.4854C38.386 95.8148 37.338 94.0736 36.4018 92.2721C35.4553 90.492 34.6663 88.6042 33.623 86.8517C32.5606 85.0998 31.3771 83.4242 30.0814 81.8371C27.5663 78.6633 25.0071 75.4813 23.2799 71.7692C22.431 69.9269 21.7022 68.0316 21.0982 66.0951L20.2795 63.1491L19.6543 60.148L20.2795 63.1491C20.5026 64.1523 20.7783 65.1195 21.0539 66.0868C21.6108 68.0437 22.3228 69.9531 23.1832 71.7968C24.8578 75.5447 27.453 78.7793 29.9155 81.9889C31.1701 83.581 32.3234 85.2503 33.3687 86.987C34.412 88.7395 35.1568 90.6189 36.095 92.4432C37.0282 94.2589 38.0734 96.0148 39.2248 97.7007C40.2831 99.2665 41.4967 100.722 42.847 102.044C41.2064 105.373 39.3757 108.604 37.364 111.722L36.2964 113.26C35.923 113.785 35.5938 114.318 35.1846 114.79C34.7753 115.263 33.6994 116.845 32.8809 117.79C32.0624 118.734 31.2438 119.678 30.3811 120.615C29.5439 121.509 28.6519 122.35 27.7103 123.133L28.5164 124.2C30.4665 122.497 32.2472 120.61 33.8336 118.564C34.1963 118.159 34.5361 117.734 34.8513 117.291C36.7583 116.643 38.6294 115.942 40.4729 115.145C42.3164 114.348 44.6244 113.272 46.6145 112.182C47.5875 111.632 48.5246 111.031 49.5418 110.49C50.559 109.949 51.532 109.4 52.5325 108.947C54.5862 108.017 56.7301 107.301 58.9305 106.81L62.2577 106.155C62.8209 106.095 63.3776 105.985 63.9214 105.827C64.4632 105.661 64.9917 105.455 65.5023 105.209C67.515 104.148 69.4107 102.879 71.1581 101.422C72.8888 100.009 74.6002 98.4541 76.2149 96.9272C77.8296 95.4003 79.425 93.7325 81.1281 92.2222C79.425 93.7325 77.8379 95.3561 76.179 96.8747Z" fill="#63966A"/>
</svg>
